<?xml version="1.0" encoding="UTF-8" standalone="no"?>
<svg
   xmlns:dc="http://purl.org/dc/elements/1.1/"
   xmlns:cc="http://creativecommons.org/ns#"
   xmlns:rdf="http://www.w3.org/1999/02/22-rdf-syntax-ns#"
   xmlns:svg="http://www.w3.org/2000/svg"
   xmlns="http://www.w3.org/2000/svg"
   xmlns:sodipodi="http://sodipodi.sourceforge.net/DTD/sodipodi-0.dtd"
   xmlns:inkscape="http://www.inkscape.org/namespaces/inkscape"
   width="578"
   height="565"
   viewBox="0 0 578 565"
   fill="none"
   version="1.1"
   id="svg219"
   sodipodi:docname="circle.svg"
   inkscape:version="0.92.4 (unknown)">
  <metadata
     id="metadata223">
    <rdf:RDF>
      <cc:Work
         rdf:about="">
        <dc:format>image/svg+xml</dc:format>
        <dc:type
           rdf:resource="http://purl.org/dc/dcmitype/StillImage" />
        <dc:title></dc:title>
      </cc:Work>
    </rdf:RDF>
  </metadata>
  <sodipodi:namedview
     pagecolor="#ffffff"
     bordercolor="#666666"
     borderopacity="1"
     objecttolerance="10"
     gridtolerance="10"
     guidetolerance="10"
     inkscape:pageopacity="0"
     inkscape:pageshadow="2"
     inkscape:window-width="1920"
     inkscape:window-height="1015"
     id="namedview221"
     showgrid="false"
     inkscape:zoom="1.1814315"
     inkscape:cx="315.9487"
     inkscape:cy="297.36451"
     inkscape:window-x="0"
     inkscape:window-y="0"
     inkscape:window-maximized="1"
     inkscape:current-layer="svg219" />
  <path
     d="M292.301 543.824H291.848C290.566 543.824 289.303 543.824 288.039 543.786L288.435 516.633C289.567 516.652 290.717 516.652 291.848 516.652H292.301V543.824ZM301.861 543.635L300.824 516.501C301.955 516.463 303.086 516.407 304.218 516.35L305.689 543.485C304.425 543.522 303.143 543.579 301.861 543.635ZM278.498 543.485C277.235 543.409 275.971 543.334 274.708 543.258L276.499 516.162C277.631 516.237 278.781 516.313 279.931 516.369L278.498 543.485ZM315.23 542.768L312.722 515.728C313.872 515.615 315.004 515.502 316.135 515.389L319.001 542.41C317.757 542.523 316.493 542.636 315.23 542.768ZM265.186 542.429C263.903 542.297 262.64 542.146 261.377 541.995L264.639 515.03C265.77 515.162 266.883 515.294 268.014 515.407L265.186 542.429ZM328.505 541.184L324.564 514.314C325.695 514.144 326.826 513.974 327.958 513.786L332.276 540.6C331.031 540.807 329.768 540.996 328.505 541.184ZM251.911 540.675C250.648 540.468 249.384 540.26 248.121 540.034L252.816 513.277C253.929 513.465 255.041 513.654 256.154 513.842L251.911 540.675ZM341.666 538.921L336.368 512.277C337.48 512.051 338.593 511.825 339.686 511.58L345.418 538.129C344.174 538.412 342.911 538.657 341.666 538.921ZM238.749 538.224C237.505 537.96 236.26 537.677 235.016 537.394L241.106 510.92C242.219 511.184 243.331 511.429 244.444 511.655L238.749 538.224ZM354.733 535.942L347.964 509.637C349.077 509.355 350.17 509.072 351.264 508.77L358.41 534.98C357.204 535.301 355.959 535.622 354.733 535.942ZM225.757 535.094C224.513 534.754 223.287 534.415 222.062 534.057L229.566 507.94C230.66 508.261 231.735 508.563 232.847 508.845L225.757 535.094ZM367.593 532.265L359.466 506.338C360.56 505.998 361.635 505.659 362.71 505.3L371.233 531.096C370.026 531.492 368.8 531.888 367.593 532.265ZM212.935 531.247C211.729 530.851 210.522 530.436 209.334 530.04L218.158 504.339C219.252 504.716 220.346 505.074 221.439 505.432L212.935 531.247ZM380.246 527.928L370.723 502.491C371.798 502.095 372.854 501.68 373.91 501.265L383.791 526.57C382.622 527.023 381.434 527.476 380.246 527.928ZM200.302 526.721C199.114 526.25 197.926 525.779 196.738 525.307L206.958 500.134C208.014 500.568 209.07 500.982 210.145 501.397L200.302 526.721ZM392.615 522.931L381.811 498.003C382.848 497.55 383.866 497.098 384.903 496.626L396.104 521.366C394.954 521.913 393.784 522.422 392.615 522.931ZM187.951 521.536C186.782 521.008 185.613 520.48 184.463 519.933L196.021 495.344C197.058 495.835 198.077 496.306 199.133 496.777L187.951 521.536ZM404.721 517.293L392.578 493.006C393.596 492.497 394.595 491.988 395.614 491.46L408.134 515.577C406.984 516.143 405.852 516.709 404.721 517.293ZM175.883 515.69C174.752 515.106 173.639 514.521 172.508 513.918L185.311 489.97C186.329 490.517 187.329 491.045 188.347 491.573L175.883 515.69ZM416.487 511.014L403.081 487.387C404.08 486.821 405.06 486.255 406.041 485.69L419.787 509.109C418.693 509.751 417.6 510.392 416.487 511.014ZM164.155 509.241C163.061 508.6 161.967 507.94 160.874 507.28L174.959 484.049C175.94 484.634 176.92 485.218 177.901 485.803L164.155 509.241ZM427.914 504.131L413.301 481.24C414.262 480.636 415.205 480.014 416.148 479.392L431.12 502.057C430.064 502.755 428.989 503.434 427.914 504.131ZM152.765 502.17C151.71 501.473 150.654 500.756 149.598 500.039L164.89 477.581C165.833 478.223 166.776 478.864 167.737 479.486L152.765 502.17ZM439.001 496.626L423.162 474.564C424.086 473.904 425.029 473.226 425.953 472.547L442.075 494.42C441.038 495.156 440.02 495.891 439.001 496.626ZM141.791 494.515C140.773 493.76 139.755 493.006 138.736 492.233L155.16 470.605C156.065 471.302 156.989 471.981 157.913 472.66L141.791 494.515ZM449.617 488.594L432.703 467.342C433.59 466.645 434.457 465.928 435.343 465.212L452.616 486.18C451.616 486.991 450.617 487.802 449.617 488.594ZM131.251 486.293C130.27 485.482 129.29 484.672 128.309 483.842L145.883 463.119C146.75 463.854 147.618 464.571 148.504 465.306L131.251 486.293ZM459.856 479.995L441.811 459.687C442.66 458.933 443.508 458.178 444.357 457.405L462.685 477.449C461.761 478.298 460.818 479.147 459.856 479.995ZM121.125 477.525C120.182 476.676 119.258 475.809 118.334 474.942L136.926 455.142C137.756 455.934 138.604 456.707 139.453 457.481L121.125 477.525ZM469.605 470.869L450.56 451.503C451.371 450.711 452.163 449.9 452.955 449.108L472.32 468.153C471.434 469.077 470.529 469.982 469.605 470.869ZM111.508 468.285C110.603 467.38 109.717 466.456 108.831 465.532L128.479 446.77C129.252 447.581 130.044 448.392 130.836 449.203L111.508 468.285ZM478.882 461.233L458.838 442.905C459.611 442.075 460.365 441.226 461.12 440.378L481.447 458.405C480.598 459.347 479.749 460.29 478.882 461.233ZM102.382 458.518C101.533 457.575 100.704 456.613 99.874 455.651L120.446 437.908C121.181 438.775 121.936 439.624 122.69 440.472L102.382 458.518ZM487.65 451.145L466.682 433.872C467.399 432.986 468.115 432.119 468.832 431.232L490.064 448.165C489.253 449.165 488.461 450.164 487.65 451.145ZM93.7646 448.297C92.9726 447.298 92.1807 446.299 91.3887 445.28L112.885 428.687C113.582 429.573 114.28 430.459 114.978 431.346L93.7646 448.297ZM495.872 440.585L474.017 424.463C474.696 423.539 475.356 422.615 476.035 421.691L498.134 437.493C497.38 438.53 496.626 439.548 495.872 440.585ZM85.7131 437.644C84.9777 436.607 84.2423 435.569 83.5257 434.532L105.833 419.032C106.493 419.975 107.134 420.899 107.794 421.823L85.7131 437.644ZM503.527 429.63L480.862 414.658C481.484 413.715 482.107 412.772 482.71 411.81L505.62 426.405C504.922 427.48 504.225 428.555 503.527 429.63ZM78.2272 426.575C77.5483 425.5 76.8695 424.425 76.2096 423.35L99.3083 409.057C99.9117 410.019 100.515 410.981 101.119 411.942L78.2272 426.575ZM510.617 418.24L487.179 404.513C487.763 403.532 488.329 402.533 488.895 401.534L512.521 414.94C511.88 416.034 511.258 417.147 510.617 418.24ZM71.3447 415.167C70.7224 414.054 70.1002 412.942 69.4779 411.829L93.2932 398.762C93.84 399.761 94.3869 400.742 94.9525 401.722L71.3447 415.167ZM517.066 406.512L492.949 394.01C493.477 392.992 493.986 391.992 494.495 390.974L518.801 403.099C518.235 404.249 517.65 405.38 517.066 406.512ZM65.0467 403.4C64.481 402.269 63.9154 401.119 63.3685 399.968L87.8438 388.183C88.334 389.201 88.8243 390.22 89.3334 391.219L65.0467 403.4ZM522.911 394.444L498.153 383.281C498.624 382.243 499.096 381.188 499.548 380.15L524.476 390.955C523.967 392.124 523.439 393.274 522.911 394.444ZM59.4088 391.295C58.8996 390.125 58.4094 388.956 57.9191 387.787L82.9789 377.322C83.4126 378.359 83.8652 379.415 84.3177 380.452L59.4088 391.295ZM528.115 382.093L502.792 372.231C503.207 371.175 503.621 370.1 504.017 369.025L529.473 378.51C529.021 379.717 528.568 380.905 528.115 382.093ZM54.4119 378.944C53.9593 377.756 53.5256 376.549 53.092 375.342L78.6797 366.234C79.0568 367.309 79.4528 368.365 79.8488 369.421L54.4119 378.944ZM532.641 369.44L506.827 360.973C507.185 359.88 507.525 358.786 507.883 357.692L533.81 365.782C533.433 367.026 533.056 368.233 532.641 369.44ZM50.0561 366.272C49.679 365.065 49.3019 363.858 48.9436 362.652L74.9651 354.845C75.3045 355.939 75.625 357.051 75.9833 358.145L50.0561 366.272ZM536.488 356.655L510.278 349.528C510.579 348.434 510.862 347.34 511.145 346.247L537.468 352.941C537.148 354.166 536.827 355.411 536.488 356.655ZM46.3792 353.412C46.0586 352.186 45.7569 350.942 45.4552 349.697L71.8727 343.362C72.1366 344.474 72.4195 345.568 72.7023 346.661L46.3792 353.412ZM539.637 343.626L513.068 337.931C513.313 336.818 513.54 335.706 513.766 334.593L540.41 339.892C540.165 341.136 539.901 342.381 539.637 343.626ZM43.3999 340.382C43.1548 339.138 42.9096 337.874 42.6834 336.63L69.4025 331.689C69.6099 332.802 69.8173 333.933 70.0436 335.046L43.3999 340.382ZM542.088 330.501L515.274 326.183C515.444 325.071 515.614 323.958 515.784 322.827L542.672 326.692C542.484 327.975 542.295 329.238 542.088 330.501ZM41.1183 327.183C40.9297 325.919 40.76 324.675 40.5903 323.411L67.5169 319.866C67.6677 320.998 67.8186 322.129 67.9883 323.261L41.1183 327.183ZM543.86 317.227L516.84 314.36C516.953 313.229 517.066 312.116 517.179 310.985L544.237 313.418C544.105 314.681 543.992 315.963 543.86 317.227ZM39.5344 313.927C39.4213 312.644 39.3081 311.381 39.2138 310.099L66.2912 308.025C66.3667 309.156 66.4798 310.287 66.5741 311.4L39.5344 313.927ZM544.916 303.876L517.782 302.481C517.839 301.331 517.895 300.199 517.933 299.049L545.067 300.086C545.029 301.349 544.973 302.613 544.916 303.876ZM38.667 300.576C38.6104 299.313 38.5727 298.05 38.535 296.767L65.6878 296.088C65.7067 297.22 65.7444 298.37 65.801 299.502L38.667 300.576ZM518.103 290.526C518.103 289.281 518.103 288.207 518.084 287.113L545.237 286.698C545.256 287.943 545.275 289.206 545.256 290.45L518.103 290.526ZM65.6313 287.547L38.4785 287.226C38.4973 285.944 38.5162 284.68 38.5539 283.417L65.7067 284.134C65.669 285.265 65.6501 286.415 65.6313 287.547ZM517.782 278.59C517.726 277.439 517.65 276.308 517.575 275.158L544.671 273.367C544.747 274.63 544.822 275.893 544.897 277.157L517.782 278.59ZM66.1027 275.629L38.9876 273.876C39.063 272.612 39.1573 271.33 39.2704 270.067L66.3478 272.216C66.2535 273.348 66.1781 274.479 66.1027 275.629ZM516.858 266.673C516.745 265.541 516.613 264.41 516.481 263.278L543.446 260.054C543.596 261.317 543.747 262.581 543.879 263.863L516.858 266.673ZM67.1775 263.731L40.1944 260.544C40.3452 259.281 40.4961 258.017 40.6658 256.754L67.5923 260.337C67.4603 261.487 67.3283 262.6 67.1775 263.731ZM515.312 254.831C515.142 253.699 514.954 252.587 514.747 251.474L541.503 246.817C541.73 248.061 541.937 249.325 542.126 250.588L515.312 254.831ZM68.8934 251.927L42.1177 247.307C42.3251 246.044 42.5514 244.799 42.7965 243.555L69.4968 248.551C69.2894 249.683 69.0819 250.795 68.8934 251.927ZM513.125 243.121C512.88 242.008 512.635 240.877 512.389 239.764L538.863 233.693C539.146 234.937 539.429 236.163 539.693 237.407L513.125 243.121ZM71.2315 240.217L44.7387 234.202C45.0215 232.957 45.3232 231.694 45.6249 230.449L72.0046 236.917C71.7407 238.011 71.4767 239.123 71.2315 240.217ZM510.315 231.505C510.014 230.412 509.712 229.299 509.391 228.205L535.507 220.757C535.847 221.983 536.186 223.19 536.525 224.415L510.315 231.505ZM74.1919 228.658L48.0574 221.247C48.3968 220.022 48.755 218.796 49.1322 217.57L75.1536 225.377C74.8142 226.471 74.4936 227.564 74.1919 228.658ZM506.902 220.078C506.544 219.003 506.186 217.91 505.809 216.835L531.491 207.972C531.906 209.179 532.302 210.386 532.716 211.593L506.902 220.078ZM77.7558 217.25L52.0549 208.444C52.4697 207.237 52.8845 206.03 53.3182 204.823L78.8871 214.007C78.51 215.081 78.1329 216.156 77.7558 217.25ZM502.886 208.84C502.471 207.784 502.056 206.728 501.623 205.672L526.796 195.471C527.267 196.64 527.738 197.828 528.191 198.997L502.886 208.84ZM81.9418 206.03L56.75 195.867C57.2214 194.679 57.7117 193.51 58.202 192.34L83.2429 202.881C82.8092 203.918 82.3755 204.974 81.9418 206.03ZM498.285 197.865C497.814 196.828 497.342 195.81 496.871 194.773L521.478 183.252C522.025 184.402 522.553 185.552 523.062 186.721L498.285 197.865ZM86.7124 195.056L62.0863 183.572C62.6331 182.403 63.18 181.253 63.7457 180.084L88.1643 191.982C87.6929 193 87.2027 194.019 86.7124 195.056ZM493.119 187.136C492.591 186.118 492.063 185.118 491.535 184.119L515.501 171.316C516.104 172.428 516.689 173.56 517.273 174.691L493.119 187.136ZM92.0676 184.364L68.0826 171.598C68.686 170.467 69.2894 169.355 69.9116 168.242L93.6892 181.366C93.1424 182.347 92.5955 183.346 92.0676 184.364ZM487.367 176.69C486.802 175.709 486.217 174.747 485.633 173.767L508.882 159.7C509.542 160.794 510.183 161.887 510.843 162.981L487.367 176.69ZM97.9695 173.974L74.7011 159.945C75.361 158.851 76.021 157.777 76.6998 156.683L99.742 171.052C99.1386 172.013 98.5541 172.994 97.9695 173.974ZM481.107 166.564C480.485 165.621 479.844 164.659 479.222 163.735L501.698 148.48C502.415 149.536 503.112 150.592 503.81 151.648L481.107 166.564ZM104.399 163.905L81.923 148.669C82.6395 147.613 83.356 146.576 84.0726 145.539L106.361 161.058C105.701 162.001 105.041 162.943 104.399 163.905ZM474.281 156.758C473.602 155.853 472.924 154.929 472.245 154.024L493.892 137.619C494.665 138.637 495.419 139.656 496.173 140.674L474.281 156.758ZM111.357 154.175L89.7105 137.77C90.4837 136.752 91.2567 135.752 92.0298 134.753L113.45 151.46C112.753 152.365 112.055 153.27 111.357 154.175ZM466.984 147.349C466.267 146.463 465.532 145.595 464.797 144.728L485.557 127.21C486.368 128.172 487.179 129.153 487.99 130.133L466.984 147.349ZM118.824 144.841L98.045 127.342C98.8746 126.362 99.7043 125.4 100.534 124.439L121.031 142.277C120.295 143.106 119.56 143.974 118.824 144.841ZM459.177 138.298C458.404 137.449 457.65 136.62 456.858 135.79L476.676 117.217C477.543 118.141 478.411 119.083 479.278 120.026L459.177 138.298ZM126.763 135.903L106.926 117.349C107.794 116.425 108.68 115.501 109.566 114.577L129.12 133.452C128.328 134.244 127.536 135.074 126.763 135.903ZM450.9 129.681C450.089 128.889 449.278 128.097 448.467 127.305L467.267 107.694C468.191 108.58 469.096 109.467 470.001 110.372L450.9 129.681ZM135.154 127.399L116.335 107.807C117.24 106.921 118.164 106.054 119.107 105.186L137.643 125.042C136.794 125.834 135.965 126.607 135.154 127.399ZM442.226 121.516C441.377 120.762 440.51 120.007 439.643 119.253L457.405 98.6995C458.367 99.5292 459.309 100.359 460.271 101.207L442.226 121.516ZM143.978 119.347L126.197 98.8127C127.159 97.983 128.139 97.1533 129.101 96.3236L146.562 117.141C145.694 117.877 144.827 118.612 143.978 119.347ZM433.062 113.785C432.176 113.068 431.289 112.37 430.384 111.673L447.053 90.233C448.052 91.025 449.071 91.7981 450.051 92.6089L433.062 113.785ZM153.199 111.767L136.511 90.3273C137.511 89.5353 138.529 88.7622 139.566 87.9891L155.896 109.693C154.99 110.391 154.085 111.088 153.199 111.767ZM423.558 106.582C422.634 105.922 421.691 105.262 420.749 104.602L436.267 82.3133C437.304 83.0299 438.341 83.7652 439.379 84.5195L423.558 106.582ZM162.797 104.696L147.259 82.4076C148.297 81.6722 149.352 80.9557 150.408 80.258L165.606 102.773C164.664 103.414 163.74 104.055 162.797 104.696ZM413.659 99.8498C412.697 99.2275 411.735 98.6241 410.774 98.0207L425.104 74.9405C426.179 75.6193 427.273 76.2981 428.348 76.977L413.659 99.8498ZM172.772 98.1338L158.422 75.0725C159.497 74.3936 160.591 73.7337 161.703 73.0737L175.676 96.3802C174.676 96.9648 173.715 97.5493 172.772 98.1338ZM403.439 93.6649C402.458 93.0992 401.459 92.5523 400.46 92.0055L413.527 68.1899C414.658 68.8121 415.771 69.4344 416.883 70.0566L403.439 93.6649ZM183.048 92.1186L169.924 68.3218C171.037 67.7184 172.15 67.0962 173.281 66.5116L186.028 90.497C185.028 91.025 184.029 91.5718 183.048 92.1186ZM392.879 88.0268C391.861 87.5177 390.843 87.0085 389.825 86.5183L401.629 62.0427C402.779 62.6084 403.929 63.1552 405.079 63.7397L392.879 88.0268ZM193.627 86.6503L181.785 62.1935C182.916 61.6467 184.067 61.0998 185.217 60.5719L196.7 85.1795C195.682 85.6698 194.645 86.1412 193.627 86.6503ZM382.056 82.9544C381.019 82.5019 379.963 82.0493 378.907 81.6156L389.391 56.5555C390.579 57.0457 391.748 57.5548 392.917 58.064L382.056 82.9544ZM204.469 81.7476L193.947 56.7063C195.116 56.216 196.285 55.7258 197.454 55.2544L207.618 80.4465C206.562 80.8802 205.506 81.2951 204.469 81.7476ZM370.969 78.4478C369.913 78.0518 368.838 77.6558 367.763 77.2786L376.889 51.6905C378.096 52.1242 379.303 52.5579 380.51 53.0104L370.969 78.4478ZM215.537 77.4295L206.355 51.8602C207.542 51.4265 208.749 51.0117 209.956 50.5968L218.743 76.2981C217.687 76.6564 216.612 77.0335 215.537 77.4295ZM359.655 74.5633C358.561 74.2239 357.468 73.8845 356.374 73.5639L364.143 47.5421C365.368 47.9004 366.594 48.2775 367.801 48.6735L359.655 74.5633ZM226.889 73.6959L219.064 47.6741C220.289 47.3158 221.496 46.9575 222.722 46.5993L230.151 72.7343C229.076 73.036 227.983 73.3565 226.889 73.6959ZM348.171 71.2823C347.059 70.9995 345.965 70.7166 344.853 70.4526L351.226 44.0536C352.452 44.3553 353.696 44.6571 354.922 44.9776L348.171 71.2823ZM238.41 70.5658L231.999 44.1668C233.243 43.8651 234.469 43.5634 235.714 43.2994L241.729 69.7926C240.616 70.0378 239.504 70.3018 238.41 70.5658ZM336.518 68.6047C335.406 68.3784 334.293 68.171 333.181 67.9636L338.121 41.244C339.384 41.4703 340.629 41.7154 341.892 41.9794L336.518 68.6047ZM250.063 68.0579L245.066 41.3572C246.311 41.1309 247.574 40.9046 248.837 40.6784L253.419 67.4545C252.288 67.643 251.176 67.8504 250.063 68.0579ZM324.79 66.5682C323.659 66.3985 322.527 66.2476 321.396 66.0968L324.941 39.1698C326.204 39.3395 327.449 39.5092 328.712 39.6978L324.79 66.5682ZM261.848 66.1534L258.265 39.2264C259.529 39.0567 260.811 38.9058 262.074 38.755L265.223 65.7385C264.092 65.8705 262.979 66.0025 261.848 66.1534ZM312.948 65.154C311.817 65.0408 310.667 64.9465 309.535 64.8711L311.647 37.7933C312.911 37.8876 314.174 38.0007 315.437 38.1139L312.948 65.154ZM273.727 64.9088L271.578 37.831C272.841 37.7367 274.123 37.6425 275.387 37.5482L277.14 64.6637C275.99 64.7391 274.859 64.8146 273.727 64.9088ZM301.012 64.362C299.881 64.3243 298.731 64.2866 297.599 64.2489L298.278 37.0956C299.56 37.1333 300.824 37.1711 302.087 37.2276L301.012 64.362ZM285.645 64.2677L284.928 37.1145C286.191 37.0768 287.455 37.0579 288.718 37.0391L289.076 64.1923C287.926 64.2111 286.776 64.23 285.645 64.2677Z"
     fill="#29292E"
     id="path2" />
  <defs
     id="defs217">
    <filter
       id="filter0_d"
       x="3.1188"
       y="1.86621"
       width="451.354"
       height="268.567"
       filterUnits="userSpaceOnUse"
       color-interpolation-filters="sRGB">
      <feFlood
         flood-opacity="0"
         result="BackgroundImageFix"
         id="feFlood188" />
      <feColorMatrix
         in="SourceAlpha"
         type="matrix"
         values="0 0 0 0 0 0 0 0 0 0 0 0 0 0 0 0 0 0 127 0"
         id="feColorMatrix190" />
      <feOffset
         dy="8"
         id="feOffset192" />
      <feColorMatrix
         type="matrix"
         values="0 0 0 0 0.160784 0 0 0 0 0.160784 0 0 0 0 0.180392 0 0 0 1 0"
         id="feColorMatrix194" />
      <feBlend
         mode="normal"
         in2="BackgroundImageFix"
         result="effect1_dropShadow"
         id="feBlend196" />
      <feBlend
         mode="normal"
         in="SourceGraphic"
         in2="effect1_dropShadow"
         result="shape"
         id="feBlend198" />
    </filter>
    <filter
       id="filter1_d"
       x="123.577"
       y="257.447"
       width="451.354"
       height="268.567"
       filterUnits="userSpaceOnUse"
       color-interpolation-filters="sRGB">
      <feFlood
         flood-opacity="0"
         result="BackgroundImageFix"
         id="feFlood201" />
      <feColorMatrix
         in="SourceAlpha"
         type="matrix"
         values="0 0 0 0 0 0 0 0 0 0 0 0 0 0 0 0 0 0 127 0"
         id="feColorMatrix203" />
      <feOffset
         dy="8"
         id="feOffset205" />
      <feColorMatrix
         type="matrix"
         values="0 0 0 0 0.160784 0 0 0 0 0.160784 0 0 0 0 0.180392 0 0 0 1 0"
         id="feColorMatrix207" />
      <feBlend
         mode="normal"
         in2="BackgroundImageFix"
         result="effect1_dropShadow"
         id="feBlend209" />
      <feBlend
         mode="normal"
         in="SourceGraphic"
         in2="effect1_dropShadow"
         result="shape"
         id="feBlend211" />
    </filter>
    <clipPath
       id="clip0">
      <rect
         width="125.194"
         height="112.069"
         transform="matrix(0.866044 0.499967 -0.866044 0.499967 374.611 310.498)"
         fill="white"
         id="rect214" />
    </clipPath>
  </defs>
</svg>
